<svg width="41" height="40" viewBox="0 0 41 40" fill="none" xmlns="http://www.w3.org/2000/svg">
<g clip-path="url(#clip0_21_1098)">
<path d="M20.6001 3.8303C20.9261 3.8303 21.1904 3.56598 21.1904 3.23995V0.590342C21.1904 0.264316 20.9261 0 20.6001 0C20.274 0 20.0098 0.264316 20.0098 0.590342V3.23995C20.0098 3.56598 20.274 3.8303 20.6001 3.8303Z" fill="black"/>
<path d="M30.8824 4.60547L29.0088 6.47906C28.7783 6.70961 28.7783 7.08341 29.0088 7.31388C29.1242 7.42911 29.2753 7.48681 29.4263 7.48681C29.5774 7.48681 29.7285 7.42919 29.8438 7.31388L31.7174 5.44029C31.948 5.20974 31.948 4.83594 31.7174 4.60547C31.4868 4.375 31.1131 4.375 30.8824 4.60547Z" fill="black"/>
<path d="M11.3551 24.1348L9.4815 26.0084C9.25096 26.239 9.25096 26.6128 9.4815 26.8432C9.59674 26.9585 9.74787 27.0162 9.89892 27.0162C10.05 27.0162 10.2011 26.9585 10.3163 26.8432L12.1899 24.9696C12.4205 24.7391 12.4205 24.3653 12.1899 24.1348C11.9594 23.9043 11.5856 23.9043 11.3551 24.1348Z" fill="black"/>
<path d="M11.3551 7.31394C11.4703 7.42917 11.6215 7.48687 11.7725 7.48687C11.9236 7.48687 12.0747 7.42925 12.1899 7.31394C12.4205 7.08339 12.4205 6.70959 12.1899 6.47912L10.3163 4.60553C10.0858 4.37498 9.71197 4.37498 9.4815 4.60553C9.25096 4.83608 9.25096 5.20988 9.4815 5.44035L11.3551 7.31394Z" fill="black"/>
<path d="M29.8437 24.1348C29.6131 23.9043 29.2394 23.9043 29.0088 24.1348C28.7783 24.3654 28.7783 24.7392 29.0088 24.9696L30.8824 26.8432C30.9978 26.9585 31.1489 27.0162 31.2999 27.0162C31.451 27.0162 31.6021 26.9585 31.7174 26.8432C31.948 26.6127 31.948 26.2389 31.7174 26.0084L29.8437 24.1348Z" fill="black"/>
<path d="M8.11503 15.1338H5.46534C5.13932 15.1338 4.875 15.3981 4.875 15.7241C4.875 16.0502 5.13932 16.3145 5.46534 16.3145H8.11495C8.44098 16.3145 8.7053 16.0502 8.7053 15.7241C8.70537 15.3981 8.44106 15.1338 8.11503 15.1338Z" fill="black"/>
<path d="M35.7341 15.1338H33.0845C32.7584 15.1338 32.4941 15.3981 32.4941 15.7241C32.4941 16.0502 32.7584 16.3145 33.0845 16.3145H35.7341C36.0602 16.3145 36.3244 16.0502 36.3244 15.7241C36.3244 15.3981 36.0602 15.1338 35.7341 15.1338Z" fill="black"/>
<path d="M25.3447 31.8937C25.6708 31.8937 25.935 31.6294 25.935 31.3034C25.935 30.9774 25.6708 30.713 25.3447 30.713H25.1314V28.7177L25.1426 28.6505C25.2631 27.9299 25.4795 27.2245 25.7858 26.5542C25.9213 26.2576 25.7906 25.9074 25.4941 25.772C25.1975 25.6364 24.8472 25.7671 24.7118 26.0637C24.4163 26.7108 24.1949 27.387 24.0502 28.0784H17.1291C16.715 26.0659 15.6759 24.2344 14.1766 22.8899C12.4054 21.3017 11.2889 19.1308 11.0328 16.7775C10.9975 16.4534 10.7063 16.2194 10.382 16.2545C10.0578 16.2897 9.82366 16.5811 9.859 16.9053C10.1467 19.5484 11.4001 21.986 13.3884 23.7689C14.7772 25.0143 15.716 26.7405 16.0319 28.6294L16.0467 28.7178V30.713H15.8531C15.5271 30.713 15.2628 30.9774 15.2628 31.3034C15.2628 31.6294 15.5271 31.8937 15.8531 31.8937H16.0467V33.3478H15.8531C15.5271 33.3478 15.2628 33.6121 15.2628 33.9381C15.2628 34.2641 15.5271 34.5285 15.8531 34.5285H16.0467V35.5407C16.0467 36.2393 16.4914 36.8345 17.1119 37.0625C17.1978 38.2947 17.92 39.3814 19.0399 39.9378C19.1243 39.9798 19.2139 39.9996 19.3021 39.9996C19.5192 39.9996 19.7281 39.8794 19.8313 39.6718C19.9764 39.3797 19.8573 39.0254 19.5652 38.8804C18.8809 38.5403 18.4217 37.901 18.3106 37.1632H22.8676C22.7566 37.901 22.2974 38.5403 21.6131 38.8803C21.3211 39.0254 21.202 39.3797 21.3471 39.6717C21.4502 39.8792 21.6591 39.9994 21.8762 39.9994C21.9645 39.9994 22.0541 39.9796 22.1384 39.9376C23.2583 39.3812 23.9804 38.2945 24.0663 37.0624C24.6869 36.8344 25.1315 36.2393 25.1315 35.5406V34.5284H25.3448C25.6709 34.5284 25.9352 34.2641 25.9352 33.938C25.9352 33.612 25.6709 33.3477 25.3448 33.3477H25.1315V31.8937H25.3447ZM17.2272 29.259H23.9506V30.713H17.2272V29.259ZM23.9507 35.5406C23.9507 35.7842 23.7525 35.9824 23.5089 35.9824H17.6691C17.4254 35.9824 17.2273 35.7842 17.2273 35.5406V34.5284H23.9507V35.5406ZM23.9507 33.3477H17.2273V31.8937H23.9507V33.3477Z" fill="black"/>
<path d="M20.6002 18.7523C22.2699 18.7523 23.6282 17.3939 23.6282 15.7243C23.6282 14.0546 22.2699 12.6963 20.6002 12.6963C18.9306 12.6963 17.5723 14.0546 17.5723 15.7243C17.5723 17.3939 18.9306 18.7523 20.6002 18.7523ZM20.6002 13.877C21.6188 13.877 22.4475 14.7057 22.4475 15.7243C22.4475 16.7429 21.6189 17.5716 20.6002 17.5716C19.5816 17.5716 18.7529 16.7429 18.7529 15.7243C18.7529 14.7057 19.5816 13.877 20.6002 13.877Z" fill="black"/>
<path d="M14.0933 13.8836C13.5507 13.8836 13.1094 14.3249 13.1094 14.8675V16.5818C13.1094 17.1244 13.5507 17.5657 14.0933 17.5657H15.2716C15.3452 17.7785 15.4315 17.9868 15.5303 18.1895L14.6968 19.0229C14.3132 19.4066 14.3132 20.0308 14.6968 20.4143L15.909 21.6265C16.2927 22.0102 16.9168 22.0102 17.3005 21.6265L18.134 20.7931C18.3367 20.8919 18.5449 20.9782 18.7577 21.0518V22.2302C18.7577 22.7727 19.199 23.2141 19.7416 23.2141H21.4559C21.9984 23.2141 22.4398 22.7727 22.4398 22.2302V21.0518C22.6525 20.9782 22.8608 20.8919 23.0635 20.7931L23.897 21.6265C24.0827 21.8124 24.3299 21.9148 24.5927 21.9148C24.8555 21.9148 25.1026 21.8124 25.2885 21.6266L26.5007 20.4143C26.8842 20.0307 26.8842 19.4066 26.5007 19.0229L25.6672 18.1895C25.766 17.9868 25.8524 17.7785 25.9259 17.5657H27.1043C27.6468 17.5657 28.0882 17.1244 28.0882 16.5818V14.8675C28.0882 14.3249 27.6468 13.8836 27.1043 13.8836H25.9259C25.8523 13.6708 25.766 13.4626 25.6672 13.2599L26.5007 12.4264C26.8842 12.0427 26.8842 11.4186 26.5007 11.035L25.2884 9.82274C25.1026 9.63698 24.8555 9.53465 24.5927 9.53465C24.3299 9.53465 24.0828 9.63698 23.897 9.82282L23.0635 10.6563C22.8608 10.5575 22.6525 10.4711 22.4398 10.3976V9.21925C22.4398 8.67669 21.9984 8.23535 21.4559 8.23535H19.7416C19.199 8.23535 18.7577 8.67669 18.7577 9.21925V10.3976C18.5449 10.4711 18.3367 10.5575 18.134 10.6563L17.3005 9.82282C16.9168 9.43918 16.2927 9.43918 15.909 9.82282L14.6968 11.035C14.3132 11.4186 14.3132 12.0428 14.6968 12.4265L15.5303 13.2599C15.4315 13.4626 15.3451 13.6709 15.2715 13.8837H14.0933V13.8836ZM16.6757 12.7355L15.6708 11.7307L16.6048 10.7968L17.6095 11.8016C17.8005 11.9924 18.0962 12.0296 18.3284 11.8918C18.6931 11.6752 19.0853 11.5125 19.494 11.4083C19.7554 11.3417 19.9384 11.1061 19.9384 10.8362V9.41596H21.2591V10.8362C21.2591 11.1061 21.442 11.3416 21.7036 11.4083C22.1122 11.5125 22.5044 11.6752 22.8691 11.8918C23.1013 12.0297 23.3971 11.9924 23.588 11.8016L24.5928 10.7968L25.5267 11.7307L24.5219 12.7356C24.3311 12.9264 24.2939 13.2224 24.4317 13.4544C24.6483 13.8191 24.8109 14.2113 24.9151 14.6199C24.9818 14.8813 25.2173 15.0643 25.4872 15.0643H26.9076V16.3851H25.4872C25.2173 16.3851 24.9819 16.5681 24.9151 16.8296C24.8109 17.2383 24.6483 17.6304 24.4317 17.995C24.2939 18.2271 24.3311 18.523 24.5219 18.7139L25.5267 19.7188L24.5928 20.6527L23.588 19.6479C23.3971 19.457 23.1012 19.4198 22.8691 19.5577C22.5045 19.7743 22.1123 19.9369 21.7036 20.0412C21.4421 20.1078 21.2591 20.3433 21.2591 20.6132V22.0335H19.9384V20.6132C19.9384 20.3433 19.7554 20.1078 19.494 20.0412C19.0853 19.9369 18.6931 19.7742 18.3284 19.5577C18.0963 19.4199 17.8005 19.4571 17.6095 19.6479L16.6048 20.6527L15.6708 19.7188L16.6756 18.7139C16.8665 18.5231 16.9035 18.2271 16.7658 17.995C16.5493 17.6304 16.3866 17.2383 16.2823 16.8295C16.2156 16.5681 15.9801 16.3851 15.7103 16.3851H14.29V15.0643H15.7103C15.9801 15.0643 16.2156 14.8814 16.2823 14.6199C16.3866 14.2113 16.5493 13.819 16.7658 13.4544C16.9036 13.2222 16.8665 12.9263 16.6757 12.7355Z" fill="black"/>
<path d="M28.2828 8.13037C26.2729 6.09684 23.5926 4.95724 20.7356 4.92167C18.0879 4.88987 15.5204 5.84614 13.5023 7.61756C11.5025 9.373 10.2167 11.7685 9.88187 14.3627C9.84015 14.686 10.0685 14.982 10.3918 15.0237C10.715 15.0654 11.0112 14.8371 11.0529 14.5137C11.3509 12.2046 12.4974 10.0706 14.2812 8.50489C16.0797 6.92615 18.3693 6.07165 20.7208 6.10219C23.2654 6.13391 25.6527 7.14891 27.443 8.96024C29.2348 10.7731 30.2215 13.1754 30.2215 15.7245C30.2215 18.4289 29.0731 21.0243 27.0709 22.8451C26.7626 23.1255 26.4693 23.4272 26.1992 23.742C25.987 23.9895 26.0154 24.3621 26.2628 24.5745C26.3741 24.67 26.5109 24.7169 26.647 24.7169C26.8132 24.7169 26.9785 24.647 27.0952 24.5109C27.3337 24.233 27.5928 23.9664 27.8653 23.7186C30.1131 21.6745 31.4023 18.7608 31.4023 15.7245C31.4022 12.8627 30.2944 10.1657 28.2828 8.13037Z" fill="black"/>
</g>
<defs>
<clipPath id="clip0_21_1098">
<rect width="40" height="40" fill="white" transform="translate(0.599609)"/>
</clipPath>
</defs>
</svg>
