<svg width="41" height="41" viewBox="0 0 41 41" fill="none" xmlns="http://www.w3.org/2000/svg">
<g clip-path="url(#clip0_21_1026)">
<path d="M7.90859 4.41797C6.45125 4.41797 5.26562 5.6032 5.26562 7.05992C5.26562 8.51664 6.45125 9.70188 7.90859 9.70188C9.36711 9.70188 10.5538 8.51664 10.5538 7.05992C10.5538 5.6032 9.36711 4.41797 7.90859 4.41797ZM7.90859 8.12625C7.32008 8.12625 6.84133 7.64789 6.84133 7.05992C6.84133 6.47195 7.32008 5.99367 7.90859 5.99367C8.49828 5.99367 8.97813 6.47203 8.97813 7.06C8.97813 7.64797 8.49828 8.12625 7.90859 8.12625Z" fill="black"/>
<path d="M31.0183 4.41797H24.0316C22.5743 4.41797 21.3887 5.6032 21.3887 7.05992C21.3887 8.51664 22.5743 9.70188 24.0316 9.70188H31.0183C32.4756 9.70188 33.6612 8.51664 33.6612 7.05992C33.6612 5.6032 32.4756 4.41797 31.0183 4.41797ZM31.0183 8.12625H24.0316C23.4431 8.12625 22.9644 7.64789 22.9644 7.05992C22.9644 6.47195 23.4432 5.99359 24.0316 5.99359H31.0183C31.6068 5.99359 32.0855 6.47195 32.0855 7.05992C32.0855 7.64789 31.6068 8.12625 31.0183 8.12625Z" fill="black"/>
<path d="M14.7582 4.41797C13.3009 4.41797 12.1152 5.6032 12.1152 7.05992C12.1152 8.51664 13.3009 9.70188 14.7582 9.70188C16.2167 9.70188 17.4034 8.51664 17.4034 7.05992C17.4034 5.6032 16.2167 4.41797 14.7582 4.41797ZM14.7582 8.12625C14.1697 8.12625 13.6909 7.64789 13.6909 7.05992C13.6909 6.47195 14.1698 5.99359 14.7582 5.99359C15.3479 5.99359 15.8277 6.47195 15.8277 7.05992C15.8277 7.64789 15.3479 8.12625 14.7582 8.12625Z" fill="black"/>
<path d="M13.4735 17.4779C13.0505 17.3766 12.6253 17.6377 12.5242 18.061L10.9612 24.6015C10.8601 25.0247 11.1211 25.4498 11.5443 25.5508C11.6059 25.5655 11.6675 25.5726 11.7282 25.5726C12.0843 25.5726 12.4073 25.3294 12.4937 24.9677L14.0567 18.4273C14.1578 18.0041 13.8967 17.5791 13.4735 17.4779Z" fill="black"/>
<path d="M16.3655 24.782C16.5156 24.9158 16.7028 24.9816 16.8892 24.9816C17.1062 24.9816 17.3222 24.8925 17.4779 24.7177L19.6871 22.2377C20.0516 21.832 20.0516 21.1965 19.6894 20.7933L17.4778 18.3107C17.1883 17.9857 16.6902 17.9571 16.3655 18.2464C16.0405 18.5359 16.0117 19.0339 16.3012 19.3587L18.2212 21.5141L16.3012 23.6696C16.0118 23.9946 16.0405 24.4927 16.3655 24.782Z" fill="black"/>
<path d="M8.65203 18.2464C8.32703 17.9569 7.82914 17.9859 7.53969 18.3107L5.3307 20.7904C4.9657 21.1963 4.9657 21.8321 5.3282 22.2351L7.53977 24.7177C7.69547 24.8926 7.91141 24.9815 8.12844 24.9815C8.31484 24.9815 8.50211 24.9158 8.65219 24.782C8.97719 24.4926 9.00594 23.9945 8.71649 23.6697L6.79641 21.5143L8.71649 19.3588C9.00578 19.0338 8.97703 18.5358 8.65203 18.2464Z" fill="black"/>
<path d="M38.8333 26.6259H38.5408C38.3876 26.1296 38.1891 25.6505 37.9469 25.1927L38.1556 24.9833C38.489 24.652 38.673 24.2095 38.6737 23.7375C38.6744 23.2644 38.491 22.8202 38.1573 22.4865L37.7505 22.08V5.29875C37.7505 2.94883 36.0923 1.03711 34.0538 1.03711H4.29633C2.25789 1.03711 0.599609 2.94883 0.599609 5.29875V27.3185C0.599609 29.6684 2.25789 31.5802 4.29633 31.5802H8.91867C9.35375 31.5802 9.70648 31.2274 9.70648 30.7923C9.70648 30.3573 9.35375 30.0045 8.91867 30.0045H4.29633C3.14664 30.0045 2.17531 28.7745 2.17531 27.3186V13.0253H36.1748V20.9866C36.085 20.9728 35.9941 20.9638 35.9015 20.9638C35.9005 20.9638 35.8996 20.9638 35.8988 20.9638C35.4267 20.9645 34.9843 21.1483 34.6555 21.4788L34.4426 21.6909C33.9752 21.4439 33.4884 21.243 32.9864 21.0897V20.8091C32.9864 19.8353 32.1941 19.0432 31.2201 19.0432H29.7944C28.8216 19.0432 28.0303 19.8353 28.0303 20.8091V21.1089C27.5378 21.2637 27.0623 21.4628 26.6077 21.7047L26.4037 21.5013C26.0723 21.1682 25.6298 20.9843 25.1577 20.9836C25.1569 20.9836 25.156 20.9836 25.1551 20.9836C24.683 20.9836 24.2397 21.1668 23.9066 21.4996L22.8994 22.5064C22.5656 22.84 22.3823 23.2843 22.383 23.7573C22.3837 24.2294 22.5676 24.6718 22.8984 25.0005L23.116 25.2188C22.8798 25.6695 22.6859 26.1398 22.5358 26.6257H22.2366C21.2638 26.6257 20.4724 27.4168 20.4724 28.3893V29.8164C20.4724 29.8798 20.4759 29.9425 20.4825 30.0042H15.8985C15.4634 30.0042 15.1107 30.357 15.1107 30.792C15.1107 31.2271 15.4634 31.5798 15.8985 31.5798H22.2365H22.5388C22.6911 32.0704 22.888 32.5444 23.1283 32.9981L22.9154 33.2101C22.23 33.8991 22.2306 35.0178 22.917 35.7037L23.9248 36.7111C24.2562 37.0441 24.6987 37.228 25.1708 37.2287H25.1734C25.6455 37.2287 26.0888 37.0455 26.4219 36.7127L26.6329 36.5018C27.0907 36.7431 27.5667 36.9403 28.0567 37.0918V37.3967C28.0567 38.3705 28.848 39.1626 29.8209 39.1626H31.2487C32.2215 39.1626 33.0128 38.3705 33.0128 37.3967V37.0937C33.5074 36.9411 33.9854 36.7431 34.4427 36.5017L34.6527 36.711C34.9841 37.0441 35.4265 37.228 35.8985 37.2287H35.9012C36.3734 37.2287 36.8166 37.0455 37.1503 36.7121L38.1554 35.7053C38.4888 35.374 38.6727 34.9316 38.6734 34.4595C38.6741 33.9864 38.4908 33.5422 38.157 33.2085L37.9467 32.9984C38.1865 32.5442 38.3833 32.0699 38.5354 31.5799H38.8331C39.8071 31.5799 40.5995 30.7888 40.5995 29.8164V28.3893C40.5996 27.417 39.8073 26.6259 38.8333 26.6259ZM2.17531 11.4496V5.29875C2.17531 3.84289 3.14664 2.61281 4.29633 2.61281H34.0538C35.2035 2.61281 36.1748 3.84289 36.1748 5.29875V11.4497L2.17531 11.4496ZM39.0239 29.8166C39.0239 29.9166 38.9348 30.0044 38.8332 30.0044H37.9323C37.5649 30.0044 37.2463 30.2582 37.1643 30.6163C36.9941 31.3588 36.7019 32.063 36.2955 32.7095C36.0998 33.0209 36.1455 33.4262 36.4057 33.6861L37.0432 34.3232C37.0909 34.3709 37.0979 34.4277 37.0979 34.4574C37.0978 34.4929 37.0886 34.5444 37.0426 34.59L36.036 35.5984C35.9883 35.646 35.9313 35.6532 35.9013 35.6532C35.9012 35.6532 35.9012 35.6532 35.9012 35.6532C35.8654 35.6532 35.8138 35.6439 35.7676 35.5974L35.1277 34.9602C34.8675 34.7011 34.463 34.6562 34.1523 34.8515C33.5048 35.2588 32.7977 35.5515 32.0502 35.7216C31.6917 35.8033 31.4373 36.122 31.4373 36.4898V37.397C31.4373 37.4982 31.3492 37.5871 31.2489 37.5871H29.821C29.7206 37.5871 29.6326 37.4983 29.6326 37.397V36.4876C29.6326 36.1195 29.3776 35.8003 29.0185 35.7191C28.2806 35.5523 27.5747 35.26 26.9205 34.8506C26.7916 34.7699 26.6467 34.7305 26.5027 34.7305C26.2992 34.7305 26.0975 34.8092 25.9455 34.9613L25.3081 35.5984C25.2604 35.646 25.2034 35.6532 25.1734 35.6532C25.1734 35.6532 25.1733 35.6532 25.1732 35.6532C25.1375 35.6532 25.0858 35.6439 25.0405 35.5984L24.0311 34.5895C23.9604 34.5188 23.9612 34.3937 24.0302 34.3243L24.6699 33.6871C24.9313 33.4268 24.977 33.0201 24.7801 32.7082C24.3731 32.0638 24.0805 31.3601 23.9102 30.6165C23.8281 30.2584 23.5095 30.0045 23.1421 30.0045H22.2366C22.1345 30.0045 22.0482 29.9185 22.0482 29.8167V28.3896C22.0482 28.2878 22.1345 28.2017 22.2366 28.2017H23.1398C23.5076 28.2017 23.8265 27.9473 23.9081 27.5887C24.0763 26.8499 24.3652 26.1491 24.7668 25.5055C24.9607 25.1948 24.9149 24.7914 24.6562 24.532L24.0117 23.8856C23.968 23.8422 23.9587 23.7907 23.9587 23.7552C23.9587 23.7255 23.9657 23.6687 24.0134 23.6211L25.0205 22.6144C25.0683 22.5667 25.1252 22.5595 25.1552 22.5595H25.1555C25.1912 22.5596 25.2429 22.5688 25.2891 22.6153L25.9244 23.2481C26.1854 23.508 26.5914 23.5526 26.9022 23.3554C27.5459 22.9473 28.251 22.6516 28.9977 22.4769C29.354 22.3935 29.6059 22.0757 29.6059 21.7098V20.8093C29.6059 20.7062 29.6922 20.6191 29.7943 20.6191H31.22C31.3234 20.6191 31.4107 20.7062 31.4107 20.8093V21.6965C31.4107 22.0656 31.667 22.3852 32.0273 22.4655C32.777 22.6324 33.4921 22.9273 34.153 23.3419C34.4635 23.5366 34.8677 23.4916 35.1277 23.2327L35.7701 22.5928C35.8137 22.549 35.8653 22.5398 35.901 22.5397H35.9012C35.9312 22.5397 35.9882 22.5469 36.0359 22.5945L37.0431 23.6012C37.0908 23.6488 37.0978 23.7057 37.0978 23.7354C37.0977 23.7709 37.0885 23.8223 37.0422 23.8684L36.4046 24.5078C36.145 24.7682 36.1 25.1735 36.2962 25.4845C36.7041 26.1311 36.9975 26.8392 37.1684 27.5891C37.2502 27.9475 37.5689 28.2018 37.9366 28.2018H38.8332C38.9348 28.2018 39.0239 28.2897 39.0239 28.3897V29.8166Z" fill="black"/>
<path d="M30.5354 24.291C27.8805 24.291 25.7207 26.4499 25.7207 29.1036C25.7207 31.756 27.8805 33.914 30.5354 33.914C33.1891 33.914 35.3479 31.7561 35.3479 29.1036C35.3479 26.45 33.1891 24.291 30.5354 24.291ZM30.5354 32.3383C28.7495 32.3383 27.2964 30.8872 27.2964 29.1036C27.2964 27.3187 28.7495 25.8667 30.5354 25.8667C32.3202 25.8667 33.7722 27.3187 33.7722 29.1036C33.7722 30.8872 32.3201 32.3383 30.5354 32.3383Z" fill="black"/>
<path d="M12.4322 30.0039H12.4167C11.9816 30.0039 11.6289 30.3566 11.6289 30.7917C11.6289 31.2268 11.9816 31.5795 12.4167 31.5795H12.4322C12.8673 31.5795 13.22 31.2268 13.22 30.7917C13.22 30.3566 12.8673 30.0039 12.4322 30.0039Z" fill="black"/>
</g>
<defs>
<clipPath id="clip0_21_1026">
<rect width="40" height="40" fill="white" transform="translate(0.599609 0.0996094)"/>
</clipPath>
</defs>
</svg>
