<svg width="41" height="41" viewBox="0 0 41 41" fill="none" xmlns="http://www.w3.org/2000/svg">
<g clip-path="url(#clip0_100_137)">
<path d="M9.55078 3.53711C9.34531 3.53711 9.14375 3.62063 8.99844 3.76602C8.85313 3.91141 8.76953 4.11281 8.76953 4.31836C8.76953 4.52383 8.85305 4.72539 8.99844 4.87063C9.14375 5.01594 9.34531 5.09961 9.55078 5.09961C9.75625 5.09961 9.95781 5.01602 10.103 4.87063C10.2484 4.72539 10.332 4.52383 10.332 4.31836C10.332 4.11281 10.2484 3.91133 10.103 3.76602C9.95781 3.62063 9.75625 3.53711 9.55078 3.53711Z" fill="black"/>
<path d="M5.80078 3.53711C5.59531 3.53711 5.39375 3.62063 5.24844 3.76602C5.10313 3.91141 5.01953 4.11281 5.01953 4.31836C5.01953 4.52383 5.10305 4.72539 5.24844 4.87063C5.39375 5.01602 5.59531 5.09961 5.80078 5.09961C6.00625 5.09961 6.20781 5.01602 6.35305 4.87063C6.49836 4.72539 6.58203 4.52383 6.58203 4.31836C6.58203 4.11281 6.49844 3.91133 6.35305 3.76602C6.20781 3.62063 6.00625 3.53711 5.80078 3.53711Z" fill="black"/>
<path d="M13.3008 3.53711C13.0953 3.53711 12.8938 3.62063 12.7484 3.76602C12.6031 3.91141 12.5195 4.11281 12.5195 4.31836C12.5195 4.52383 12.603 4.72539 12.7484 4.87063C12.8938 5.01594 13.0953 5.09961 13.3008 5.09961C13.5063 5.09961 13.7078 5.01602 13.853 4.87063C13.9984 4.72539 14.082 4.52383 14.082 4.31836C14.082 4.11281 13.9984 3.91133 13.853 3.76602C13.7078 3.62063 13.5063 3.53711 13.3008 3.53711Z" fill="black"/>
<path d="M19.9853 28.2246H13.4492C13.0178 28.2246 12.668 28.5744 12.668 29.0058C12.668 29.4372 13.0178 29.787 13.4492 29.787H19.9853C20.4167 29.787 20.7665 29.4372 20.7665 29.0058C20.7665 28.5744 20.4167 28.2246 19.9853 28.2246Z" fill="black"/>
<path d="M24.0586 28.2246C23.8523 28.2246 23.6516 28.3082 23.5063 28.4535C23.3609 28.5988 23.2773 28.8004 23.2773 29.0059C23.2773 29.2113 23.3609 29.4129 23.5063 29.5582C23.6516 29.7034 23.853 29.7871 24.0586 29.7871C24.2641 29.7871 24.4648 29.7035 24.6109 29.5582C24.7562 29.4129 24.8398 29.2113 24.8398 29.0059C24.8398 28.8004 24.7563 28.5988 24.6109 28.4535C24.4656 28.3082 24.2641 28.2246 24.0586 28.2246Z" fill="black"/>
<path d="M28.1504 28.2246C27.9449 28.2246 27.7434 28.3082 27.598 28.4535C27.4527 28.5988 27.3691 28.8004 27.3691 29.0059C27.3691 29.2113 27.4527 29.4129 27.598 29.5582C27.7441 29.7034 27.9449 29.7871 28.1504 29.7871C28.3559 29.7871 28.5574 29.7035 28.7027 29.5582C28.848 29.4129 28.9316 29.2113 28.9316 29.0059C28.9316 28.8004 28.848 28.5988 28.7027 28.4535C28.5574 28.3082 28.3566 28.2246 28.1504 28.2246Z" fill="black"/>
<path d="M19.9853 14.4756H13.4492C13.0178 14.4756 12.668 14.8254 12.668 15.2568C12.668 15.6882 13.0178 16.038 13.4492 16.038H19.9853C20.4167 16.038 20.7665 15.6882 20.7665 15.2568C20.7665 14.8254 20.4167 14.4756 19.9853 14.4756Z" fill="black"/>
<path d="M24.0586 14.4756C23.853 14.4756 23.6516 14.5592 23.5063 14.7045C23.3609 14.8498 23.2773 15.0514 23.2773 15.2568C23.2773 15.4623 23.3609 15.6639 23.5063 15.8092C23.6516 15.9544 23.853 16.0381 24.0586 16.0381C24.2641 16.0381 24.4656 15.9545 24.6109 15.8092C24.7562 15.6639 24.8398 15.4623 24.8398 15.2568C24.8398 15.0514 24.7563 14.8498 24.6109 14.7045C24.4656 14.5592 24.2641 14.4756 24.0586 14.4756Z" fill="black"/>
<path d="M28.1504 14.4756C27.9449 14.4756 27.7434 14.5592 27.598 14.7045C27.4527 14.8498 27.3691 15.0514 27.3691 15.2568C27.3691 15.4623 27.4527 15.6639 27.598 15.8092C27.7434 15.9544 27.9449 16.0381 28.1504 16.0381C28.3559 16.0381 28.5574 15.9545 28.7027 15.8092C28.848 15.6639 28.9316 15.4623 28.9316 15.2568C28.9316 15.0514 28.848 14.8498 28.7027 14.7045C28.5574 14.5592 28.3566 14.4756 28.1504 14.4756Z" fill="black"/>
<path d="M19.9853 21.3506H13.4492C13.0178 21.3506 12.668 21.7004 12.668 22.1318C12.668 22.5632 13.0178 22.913 13.4492 22.913H19.9853C20.4167 22.913 20.7665 22.5632 20.7665 22.1318C20.7665 21.7004 20.4167 21.3506 19.9853 21.3506Z" fill="black"/>
<path d="M24.0586 21.3506C23.8523 21.3506 23.6516 21.4342 23.5063 21.5795C23.3609 21.7248 23.2773 21.9264 23.2773 22.1318C23.2773 22.3373 23.3609 22.5389 23.5063 22.6842C23.6516 22.8294 23.853 22.9131 24.0586 22.9131C24.2641 22.9131 24.4648 22.8295 24.6109 22.6842C24.7562 22.5389 24.8398 22.3373 24.8398 22.1318C24.8398 21.9264 24.7563 21.7248 24.6109 21.5795C24.4656 21.4342 24.2641 21.3506 24.0586 21.3506Z" fill="black"/>
<path d="M28.1504 21.3506C27.9449 21.3506 27.7434 21.4342 27.598 21.5795C27.4527 21.7248 27.3691 21.9264 27.3691 22.1318C27.3691 22.3373 27.4527 22.5389 27.598 22.6842C27.7434 22.8294 27.9449 22.9131 28.1504 22.9131C28.3559 22.9131 28.5574 22.8295 28.7027 22.6842C28.848 22.5389 28.9316 22.3373 28.9316 22.1318C28.9316 21.9264 28.848 21.7248 28.7027 21.5795C28.5574 21.4342 28.3566 21.3506 28.1504 21.3506Z" fill="black"/>
<path d="M37.5181 0.0996094H4.0819C2.27268 0.0996094 0.800781 1.5715 0.800781 3.38073V26.8134C0.800781 28.6226 2.27268 30.0945 4.0819 30.0945H9.08171V30.8811C9.08171 32.1734 10.1331 33.2248 11.4254 33.2248H20.0188V34.9047C19.1814 35.1628 18.5195 35.8248 18.2613 36.6622H9.86293C9.43154 36.6622 9.08171 37.012 9.08171 37.4434C9.08171 37.8748 9.43154 38.2246 9.86293 38.2246H18.2613C18.5956 39.3092 19.6072 40.0995 20.8 40.0995C21.9928 40.0995 23.0044 39.3092 23.3387 38.2246H31.7371C32.1685 38.2246 32.5183 37.8748 32.5183 37.4434C32.5183 37.012 32.1685 36.6622 31.7371 36.6622H23.3387C23.0805 35.8248 22.4186 35.1628 21.5812 34.9047V33.2249H30.1746C31.4669 33.2249 32.5183 32.1735 32.5183 30.8812V30.0945H37.5181C39.3273 30.0945 40.7992 28.6226 40.7992 26.8134V3.38073C40.7992 1.5715 39.3273 0.0996094 37.5181 0.0996094ZM20.8 38.5372C20.1969 38.5372 19.7063 38.0466 19.7063 37.4435C19.7063 36.8404 20.1969 36.3498 20.8 36.3498C21.4031 36.3498 21.8937 36.8404 21.8937 37.4435C21.8937 38.0466 21.403 38.5372 20.8 38.5372ZM10.6441 17.1318V13.3819C10.6441 12.9511 10.9946 12.6007 11.4254 12.6007H30.1746C30.6054 12.6007 30.9559 12.9511 30.9559 13.3819V17.1318C30.9559 17.5625 30.6054 17.913 30.1746 17.913H11.4254C10.9946 17.913 10.6441 17.5624 10.6441 17.1318ZM10.6441 24.0065V20.2566C10.6441 19.8259 10.9946 19.4754 11.4254 19.4754H30.1746C30.6054 19.4754 30.9559 19.8259 30.9559 20.2566V24.0065C30.9559 24.4373 30.6054 24.7877 30.1746 24.7877H11.4254C10.9946 24.7877 10.6441 24.4372 10.6441 24.0065ZM30.1746 31.6624H11.4254C10.9946 31.6624 10.6441 31.312 10.6441 30.8812V27.1314C10.6441 26.7006 10.9946 26.3501 11.4254 26.3501H30.1746C30.6054 26.3501 30.9559 26.7006 30.9559 27.1314V30.8812C30.9559 31.3119 30.6053 31.6624 30.1746 31.6624ZM37.5181 28.5321H32.5183V27.1314C32.5183 26.5315 32.2916 25.9839 31.9196 25.5689C32.2915 25.1539 32.5183 24.6063 32.5183 24.0065V20.2566C32.5183 19.6568 32.2916 19.1092 31.9196 18.6942C32.2915 18.2792 32.5183 17.7316 32.5183 17.1318V13.3819C32.5183 12.0896 31.4669 11.0382 30.1746 11.0382H11.4254C10.1331 11.0382 9.08171 12.0896 9.08171 13.3819V17.1318C9.08171 17.7316 9.30842 18.2792 9.68043 18.6942C9.3085 19.1092 9.08171 19.6568 9.08171 20.2566V24.0065C9.08171 24.6063 9.30842 25.1539 9.68043 25.5689C9.3085 25.9839 9.08171 26.5315 9.08171 27.1314V28.5322H4.0819C3.13421 28.5322 2.36322 27.7612 2.36322 26.8135V8.53678H17.2846C17.716 8.53678 18.0658 8.18695 18.0658 7.75556C18.0658 7.32417 17.716 6.97434 17.2846 6.97434H2.36322V3.38073C2.36322 2.43303 3.13421 1.66205 4.0819 1.66205H37.5181C38.4658 1.66205 39.2368 2.43303 39.2368 3.38073V6.97434H24.3156C23.8842 6.97434 23.5343 7.32417 23.5343 7.75556C23.5343 8.18695 23.8842 8.53678 24.3156 8.53678H39.2368V26.8134C39.2368 27.7611 38.4658 28.5321 37.5181 28.5321Z" fill="black"/>
<path d="M20.8008 6.97461C20.5953 6.97461 20.3938 7.05813 20.2484 7.20352C20.1031 7.34891 20.0195 7.55031 20.0195 7.75586C20.0195 7.96133 20.103 8.16289 20.2484 8.30813C20.3938 8.45344 20.5953 8.53711 20.8008 8.53711C21.0063 8.53711 21.2078 8.45352 21.353 8.30813C21.4984 8.16289 21.582 7.96133 21.582 7.75586C21.582 7.55031 21.4984 7.34883 21.353 7.20352C21.2078 7.05813 21.0063 6.97461 20.8008 6.97461Z" fill="black"/>
</g>
<defs>
<clipPath id="clip0_100_137">
<rect width="40" height="40" fill="white" transform="translate(0.800781 0.0996094)"/>
</clipPath>
</defs>
</svg>
