<svg width="41" height="41" viewBox="0 0 41 41" fill="none" xmlns="http://www.w3.org/2000/svg">
<g clip-path="url(#clip0_31_22)">
<path d="M34.9731 6.31238H39.6191C40.0507 6.31238 40.4004 5.96265 40.4004 5.53113V0.880859C40.4004 0.449341 40.0507 0.0996094 39.6191 0.0996094H34.9731C34.5416 0.0996094 34.1919 0.449341 34.1919 0.880859V2.42474H23.5046V0.880859C23.5046 0.449341 23.1549 0.0996094 22.7234 0.0996094H18.0774C17.6459 0.0996094 17.2961 0.449341 17.2961 0.880859V2.42474H6.60889V0.880859C6.60889 0.449341 6.25916 0.0996094 5.82764 0.0996094H1.18164C0.750122 0.0996094 0.400391 0.449341 0.400391 0.880859V5.53113C0.400391 5.96265 0.750122 6.31238 1.18164 6.31238H5.82764C6.25916 6.31238 6.60889 5.96265 6.60889 5.53113V3.98724H13.1079C10.8194 5.02484 8.7561 6.54889 7.07489 8.47607C4.43878 11.4979 2.91473 15.3218 2.73865 19.3184H1.18164C0.750122 19.3184 0.400391 19.6681 0.400391 20.0996V24.7499C0.400391 25.1814 0.750122 25.5311 1.18164 25.5311H5.82764C6.25916 25.5311 6.60889 25.1814 6.60889 24.7499V20.0996C6.60889 19.6681 6.25916 19.3184 5.82764 19.3184H4.30298C4.66309 11.956 10.079 5.68677 17.2961 4.27747V5.53143C17.2961 5.96295 17.6459 6.31268 18.0774 6.31268H22.7234C23.1549 6.31268 23.5046 5.96295 23.5046 5.53143V4.27747C30.7217 5.68677 36.1377 11.956 36.4978 19.3184H34.9731C34.5416 19.3184 34.1919 19.6681 34.1919 20.0996V24.7499C34.1919 25.1814 34.5416 25.5311 34.9731 25.5311H39.6191C40.0507 25.5311 40.4004 25.1814 40.4004 24.7499V20.0996C40.4004 19.6681 40.0507 19.3184 39.6191 19.3184H38.0621C37.886 15.3218 36.362 11.4979 33.7259 8.47607C32.0447 6.54889 29.9814 5.02484 27.6929 3.98724H34.1919V5.53143C34.1919 5.96265 34.5416 6.31238 34.9731 6.31238ZM5.04639 4.74988H1.96289V1.66211H5.04639V4.74988ZM5.04639 23.9686H1.96289V20.8809H5.04639V23.9686ZM38.8379 23.9686H35.7544V20.8809H38.8379V23.9686ZM21.9421 4.74988H18.8586V1.66211H21.9421V4.74988ZM35.7544 1.66211H38.8379V4.74988H35.7544V1.66211Z" fill="black"/>
<path d="M21.0855 8.70709C20.9482 8.45776 20.686 8.30273 20.4013 8.30273C20.1166 8.30273 19.8544 8.45776 19.7171 8.70709L16.4722 14.5982C16.264 14.9763 16.4017 15.4515 16.7798 15.6593C17.1573 15.8674 17.6328 15.7301 17.8409 15.352L19.6201 12.1217V17.8831C18.5355 18.2176 17.7451 19.2292 17.7451 20.4222C17.7451 21.8867 18.9368 23.0784 20.4013 23.0784C21.8659 23.0784 23.0576 21.8867 23.0576 20.4222C23.0576 19.2292 22.2672 18.2176 21.1826 17.8831V12.1217L26.5424 21.8531C24.7815 23.6342 23.5812 25.9187 23.1149 28.3809H17.6877C17.2211 25.9187 16.0208 23.6342 14.2603 21.8531L15.1556 20.2275C15.3638 19.8497 15.2261 19.3745 14.8483 19.1664C14.4705 18.9583 13.9951 19.0956 13.7869 19.4737L12.6029 21.624C12.4289 21.9395 12.4936 22.3335 12.7594 22.577C14.4418 24.1179 15.6101 26.1589 16.0935 28.3809H15.3659C14.0735 28.3809 13.0222 29.4325 13.0222 30.7246C13.0222 31.6365 13.5455 32.4275 14.3076 32.8148V39.3184C14.3076 39.7499 14.6573 40.0996 15.0888 40.0996C15.5203 40.0996 15.8701 39.7499 15.8701 39.3184V33.0684H24.9326V39.3184C24.9326 39.7499 25.2823 40.0996 25.7138 40.0996C26.1453 40.0996 26.4951 39.7499 26.4951 39.3184V32.8148C27.2571 32.4275 27.7805 31.6362 27.7805 30.7246C27.7805 29.4322 26.7291 28.3809 25.4367 28.3809H24.7092C25.1926 26.1586 26.3608 24.1179 28.0432 22.5767C28.309 22.3332 28.3737 21.9395 28.1998 21.6237L21.0855 8.70709ZM20.4013 21.5159C19.7983 21.5159 19.3076 21.0252 19.3076 20.4222C19.3076 19.8188 19.7983 19.3284 20.4013 19.3284C21.0043 19.3284 21.4951 19.8188 21.4951 20.4222C21.4951 21.0252 21.0043 21.5159 20.4013 21.5159ZM26.218 30.7246C26.218 31.1555 25.8676 31.5059 25.4367 31.5059H15.3659C14.935 31.5059 14.5847 31.1555 14.5847 30.7246C14.5847 30.2937 14.935 29.9434 15.3659 29.9434H25.4367C25.8676 29.9434 26.218 30.2937 26.218 30.7246Z" fill="black"/>
<path d="M15.7617 18.2344C15.9674 18.2344 16.1688 18.1514 16.3141 18.0061C16.4594 17.8599 16.543 17.6594 16.543 17.4531C16.543 17.2474 16.4594 17.0469 16.3141 16.9008C16.1688 16.7555 15.9674 16.6719 15.7617 16.6719C15.5554 16.6719 15.354 16.7555 15.2087 16.9008C15.0635 17.0469 14.9805 17.2474 14.9805 17.4531C14.9805 17.6594 15.0635 17.8599 15.2087 18.0061C15.354 18.1514 15.5554 18.2344 15.7617 18.2344Z" fill="black"/>
</g>
<defs>
<clipPath id="clip0_31_22">
<rect width="40" height="40" fill="white" transform="translate(0.400391 0.0996094)"/>
</clipPath>
</defs>
</svg>
