<svg width="41" height="40" viewBox="0 0 41 40" fill="none" xmlns="http://www.w3.org/2000/svg">
<g clip-path="url(#clip0_39_29)">
<path d="M35.178 0H33.4582C32.7023 0 32.7023 1.17204 33.4582 1.17204H35.178C36.954 1.17204 38.399 2.61178 38.399 4.38141V17.9437C38.399 19.7134 36.9541 21.1531 35.178 21.1531H33.2275C33.0988 21.1531 32.9737 21.1955 32.8714 21.2737L29.2923 24.0114V21.7392C29.2923 21.4155 29.03 21.1531 28.7063 21.1531H21.574C20.9899 21.1531 20.4286 20.999 19.9335 20.7059V14.1274C19.9335 12.8952 19.3059 11.8066 18.3529 11.1625V4.38141C18.3529 2.61178 19.7979 1.17204 21.574 1.17204H29.7858C30.5417 1.17204 30.5417 0 29.7858 0H21.574C19.1516 0 17.1809 1.96552 17.1809 4.38141V10.6474C16.9125 10.5833 16.633 10.5484 16.3453 10.5484H5.61747C3.63898 10.5484 2.0293 12.1539 2.0293 14.1274V15.3928C2.0293 16.1487 3.20134 16.1487 3.20134 15.3928V14.1274C3.20134 12.8002 4.28517 11.7204 5.61747 11.7204H16.3454C17.6777 11.7204 18.7616 12.8002 18.7616 14.1274V20.9392C18.7545 20.9909 18.7548 21.043 18.7616 21.0944V24.8224C18.7616 24.8961 18.7571 24.9695 18.7505 25.0424H17.5419C16.2103 25.0424 15.1001 26.0036 14.8699 27.2668C14.8166 27.2869 14.7654 27.315 14.718 27.3515L12.0969 29.3753V27.8154C12.0969 27.4918 11.8346 27.2294 11.5109 27.2294H5.61747C4.28517 27.2294 3.20134 26.1496 3.20134 24.8224V18.909C3.20134 18.1531 2.0293 18.1531 2.0293 18.909V24.8225C2.0293 26.796 3.63898 28.4015 5.61747 28.4015H10.925V30.5682C10.925 31.0383 11.4957 31.3203 11.8692 31.0321L14.8254 28.7495V35.3423C14.8254 36.8367 16.0441 38.0523 17.542 38.0523H21.1382V39.4198C21.1382 39.8897 21.709 40.172 22.0824 39.8837L24.4543 38.0523H25.155C26.6529 38.0523 27.8716 36.8366 27.8716 35.3423V34.3018C27.8716 33.5459 26.6995 33.5459 26.6995 34.3018V35.3423C26.6995 36.1904 26.0067 36.8803 25.155 36.8803H24.2543C24.1247 36.8803 23.9987 36.9232 23.8962 37.0024L22.3102 38.2269V37.4662C22.3102 37.1426 22.0479 36.8802 21.7242 36.8802H17.5419C16.6903 36.8802 15.9974 36.1902 15.9974 35.3422V27.7525C15.9974 26.9044 16.6902 26.2146 17.5419 26.2146H25.155C26.0066 26.2146 26.6995 26.9045 26.6995 27.7525V30.6294C26.6995 31.3853 27.8716 31.3853 27.8716 30.6294V27.7526C27.8716 26.2582 26.6529 25.0426 25.155 25.0426H19.9269C19.9313 24.9694 19.9336 22.0095 19.9336 22.0095C20.4503 22.2173 21.0043 22.3253 21.5741 22.3253H28.1203V25.1975C28.1203 25.6664 28.6887 25.9488 29.0624 25.663L33.426 22.3253H35.1781C37.6004 22.3253 39.5711 20.3597 39.5711 17.9438V4.38141C39.5711 1.96552 37.6003 0 35.178 0Z" fill="black"/>
<path d="M29.8403 4.32972C29.0962 4.13977 28.338 4.72767 28.338 5.49653C28.338 6.33658 28.0319 7.14615 27.4764 7.77569L25.8618 9.60275C25.7572 9.44234 25.5766 9.33615 25.3709 9.33615H22.2188C21.8951 9.33615 21.6328 9.59853 21.6328 9.92217V17.0142C21.6328 17.3379 21.8951 17.6002 22.2188 17.6002H25.3709C25.6077 17.6002 25.8112 17.4595 25.9036 17.2575C26.5417 17.6474 27.2812 17.8582 28.0336 17.8582H33.6041C34.4553 17.8582 35.1575 17.1195 35.1176 16.2705C35.0998 15.8945 35.1192 10.8459 35.1192 10.7338C35.1192 9.89834 34.4395 9.21855 33.6058 9.21855L30.709 9.20988L30.829 8.92586C31.3771 7.62778 31.2869 6.12256 30.5879 4.89918C30.4247 4.61336 30.1591 4.41122 29.8403 4.32972C30.1591 4.41122 29.5214 4.2483 29.8403 4.32972C30.1591 4.41122 29.0963 4.13977 29.8403 4.32972ZM24.7848 16.4282H22.8049V10.5082H24.7848V16.4282ZM33.6041 10.3905C33.7933 10.3905 33.9473 10.5444 33.9473 10.7337C33.9473 10.8452 33.9461 11.1478 33.9445 11.5581C33.9358 13.8234 33.9301 15.9689 33.9468 16.3255C33.9529 16.4542 33.8903 16.54 33.8525 16.5797C33.787 16.6483 33.6988 16.686 33.6041 16.686H28.0336C27.3696 16.686 26.7197 16.4559 26.2036 16.0381L25.9569 15.8384V11.265L28.355 8.55143C29.0998 7.70724 29.51 6.62232 29.51 5.49645C29.51 5.46332 29.5553 5.45473 29.5703 5.48051C30.0893 6.38869 30.1562 7.50612 29.7493 8.46977L29.2868 9.56517C29.2105 9.7459 29.2297 9.95272 29.3378 10.1163C29.446 10.28 29.6288 10.3786 29.8249 10.3792L33.6041 10.3905Z" fill="black"/>
<path d="M7.04891 20.3542C6.72519 20.3542 6.46289 20.6166 6.46289 20.9402C6.46289 21.2639 6.72519 21.5263 7.04891 21.5263H8.77635L8.45365 23.478C8.40083 23.7973 8.61695 24.099 8.93622 24.1518C8.96864 24.1572 9.00076 24.1598 9.03248 24.1598C9.31408 24.1598 9.56248 23.9562 9.60999 23.6692L9.96426 21.5263H11.378L11.0553 23.4781C11.0025 23.7974 11.2186 24.099 11.5378 24.1519C11.5703 24.1573 11.6024 24.1598 11.6341 24.1598C11.9157 24.1598 12.1641 23.9563 12.2116 23.6693L12.5659 21.5264H14.9172C15.241 21.5264 15.5033 21.264 15.5033 20.9404C15.5033 20.6167 15.241 20.3544 14.9172 20.3544H12.7597L12.996 18.9248H14.9172C15.241 18.9248 15.5033 18.6624 15.5033 18.3388C15.5033 18.0151 15.241 17.7527 14.9172 17.7527H13.1898L13.5125 15.801C13.5653 15.4817 13.3492 15.18 13.0299 15.1272C12.7103 15.0742 12.409 15.2905 12.3562 15.6098L12.0019 17.7527H10.5882L10.9109 15.8009C10.9637 15.4816 10.7476 15.1799 10.4283 15.1271C10.1083 15.0741 9.80744 15.2904 9.75454 15.6097L9.40027 17.7526H7.04891C6.72519 17.7526 6.46289 18.015 6.46289 18.3386C6.46289 18.6622 6.72519 18.9246 7.04891 18.9246H9.20649L8.97013 20.3542H7.04891ZM10.3945 18.9246H11.8082L11.5718 20.3542H10.1581L10.3945 18.9246Z" fill="black"/>
<path d="M21.3425 29.2385C20.8693 28.8489 20.2398 28.6952 19.6083 28.8488C18.799 29.0453 17.9824 29.8018 17.9824 31.0488C17.9824 31.8249 18.2657 32.4986 18.8483 33.1083C19.3243 33.6065 20.0111 34.0801 21.0751 34.6443C21.161 34.6898 21.2553 34.7126 21.3496 34.7126C21.4439 34.7126 21.5382 34.6898 21.6241 34.6443C23.4805 33.6602 24.7168 32.6721 24.7168 31.0488C24.7168 29.795 23.8712 29.0462 23.0331 28.8603C22.4035 28.7206 21.7931 28.8689 21.3425 29.2385ZM23.5446 31.0488C23.5446 31.9244 22.9638 32.5719 21.3496 33.4605C19.7353 32.5718 19.1544 31.9243 19.1544 31.0488C19.1544 30.3973 19.5316 30.0735 19.8847 29.9877C19.9498 29.9719 20.0195 29.963 20.0912 29.963C20.3568 29.963 20.6487 30.0856 20.8288 30.4347C20.9314 30.6333 21.1387 30.7564 21.3612 30.7518C21.5846 30.7474 21.7861 30.6163 21.8806 30.4137C22.0702 30.0073 22.469 29.9358 22.7791 30.0046C23.1493 30.0866 23.5446 30.4041 23.5446 31.0488Z" fill="black"/>
</g>
<defs>
<clipPath id="clip0_39_29">
<rect width="40" height="40" fill="white" transform="translate(0.800781)"/>
</clipPath>
</defs>
</svg>
