<svg width="149" height="60" viewBox="0 0 149 60" fill="none" xmlns="http://www.w3.org/2000/svg">
<path d="M72.467 59.2653C71.2853 59.2653 70.108 59.258 68.9263 59.2426C39.4147 58.8446 16.5879 53.8578 6.3032 45.5692C1.25362 41.4961 -0.770884 36.6948 0.282269 31.3027C2.90419 17.8571 24.1937 9.20328 63.5576 5.5859C66.3219 5.33174 69.079 5.11118 71.8134 4.92202C48.487 2.63605 29.5419 3.35179 24.9693 5.43399L23.8818 2.98808C29.8319 0.281429 52.4491 0.107608 75.3738 2.59442C79.6346 3.05746 83.6405 3.57308 87.4025 4.12668C106.381 3.47813 121.107 4.06606 121.313 4.07336L121.204 6.75079C121.054 6.74349 112.945 6.42068 101.063 6.51928C122.735 10.9787 133.781 16.7462 138.935 20.3373C145.96 25.2365 149.339 30.8557 148.975 37.0446C148.698 41.7276 144.639 45.8686 136.905 49.3531C123.369 55.4471 98.3657 59.2616 72.467 59.2653ZM87.1812 6.81506C79.8106 7.07288 71.8068 7.51619 63.776 8.25603C26.2759 11.7069 5.21938 19.856 2.88594 31.819C2.02705 36.2142 3.68858 40.0252 7.9567 43.468C17.6454 51.2797 40.4496 56.1752 68.9599 56.5579C95.7481 56.918 121.996 53.1297 135.825 46.8999C140.468 44.8067 146.061 41.3712 146.324 36.8818C146.627 31.6942 143.634 26.871 137.427 22.54C127.731 15.7866 109.779 10.209 87.1812 6.8158V6.81506Z" fill="#023F90"/>
</svg>
