<svg width="378" height="99" viewBox="0 0 378 99" fill="none" xmlns="http://www.w3.org/2000/svg">
<path d="M183.825 99C180.827 99 177.84 98.9876 174.842 98.9616C99.9685 98.2872 42.055 89.8376 15.962 75.7932C3.15081 68.8917 -1.98553 60.7563 0.686406 51.6199C7.33844 28.8375 61.3515 14.1744 161.221 8.04508C168.234 7.61443 175.229 7.24071 182.166 6.92019C122.986 3.04682 74.9205 4.25957 63.3193 7.78768L60.5603 3.6433C75.6561 -0.942874 133.038 -1.2374 191.2 2.97628C202.01 3.76086 212.173 4.63453 221.717 5.57256C269.868 4.47366 307.228 5.46984 307.751 5.48222L307.475 10.0189C307.095 10.0065 286.522 9.45954 256.375 9.6266C311.359 17.1828 339.382 26.9553 352.459 33.0401C370.282 41.3412 378.855 50.8625 377.933 61.3491C377.229 69.2839 366.932 76.3006 347.309 82.2047C312.967 92.5304 249.532 98.9938 183.825 99ZM221.156 10.1278C202.456 10.5646 182.15 11.3158 161.775 12.5694C66.6342 18.4166 13.2122 32.2246 7.29212 52.4948C5.11307 59.9421 9.32849 66.3993 20.157 72.2329C44.7381 85.4692 102.594 93.7641 174.927 94.4126C242.891 95.0227 309.483 88.6038 344.569 78.0479C356.35 74.5012 370.538 68.68 371.205 61.0731C371.975 52.2832 364.38 44.1107 348.632 36.7724C324.033 25.3292 278.489 15.8784 221.156 10.129V10.1278Z" fill="#023F90"/>
</svg>
